# xmcd
#
# Track frame offsets:
#	150
#	17015
#	29292
#	44141
#	56476
#	70523
#	87132
#	102254
#	119750
#	138163
#	150762
#	168233
#	183538
#	204529
#
# Disc length: 2946 seconds
#
# Revision: 1
# Processed by: cddbd v1.5.1PL2 Copyright (c) Steve Scherf et al.
# Submitted via: dBpowerAMP V4.0
#
DISCID=b40b800e
DTITLE=Willie Nelson and Ray Price - San Antonio Rose
DYEAR=1980
DGENRE=Country
TTITLE0=San Antonio Rose
TTITLE1=I'll Be There (If You Ever Want Me)
TTITLE2=I Fall To Pieces
TTITLE3=Crazy Arms
TTITLE4=Release Me
TTITLE5=Don't You Ever Get Tired (Of Hurting Me)
TTITLE6=This Cold War With You
TTITLE7=Funny How Time Slips Away
TTITLE8=Night Life
TTITLE9=Deep Water
TTITLE10=Faded Love
TTITLE11=Just Call Me Lonesome
TTITLE12=My Life's Been A Pleasure
TTITLE13=DATA
EXTD=
EXTT0=
EXTT1=
EXTT2=
EXTT3=
EXTT4=
EXTT5=
EXTT6=
EXTT7=
EXTT8=
EXTT9=
EXTT10=
EXTT11=
EXTT12=
EXTT13=
PLAYORDER=
